Coordinates
version=1
nRows=14
nColumns=46
inDegrees=yes

Units are S.I. units (second, meters, Newtons, ...)
Angles are in degrees.

endheader
time	pelvis_tilt	pelvis_list	pelvis_rotation	pelvis_tx	pelvis_ty	pelvis_tz	bb_angle	bb_tx	bb_ty	bb_tz	hip_flexion_r	hip_adduction_r	hip_rotation_r	knee_angle_r	knee_angle_r_beta	ankle_angle_r	subtalar_angle_r	mtp_angle_r	crank_angle_r	hip_flexion_l	hip_adduction_l	hip_rotation_l	knee_angle_l	knee_angle_l_beta	ankle_angle_l	subtalar_angle_l	mtp_angle_l	crank_angle_l	lumbar_extension	lumbar_bending	lumbar_rotation	arm_flex_r	arm_add_r	arm_rot_r	elbow_flex_r	pro_sup_r	wrist_flex_r	wrist_dev_r	arm_flex_l	arm_add_l	arm_rot_l	elbow_flex_l	pro_sup_l	wrist_flex_l	wrist_dev_l
      5.00500000	    -22.52809333	     -3.65584367	      5.25100175	      0.37204503	      1.12982557	     -0.26082505	      0.00000000	      0.50000000	      0.00000000	      0.25000000	     58.60942562	     -4.68169378	     -0.95656955	     98.33841002	      1.71632904	    -13.35159675	    -13.15567842	      0.00000000	      0.00000000	     49.99761765	     -0.74997003	      9.18742722	     47.53272687	      0.82960259	    -10.25445744	    -12.98222195	      0.00000000	      0.00000000	    -63.84096531	      4.80863567	     -5.53356422	     52.29234450	    -17.25038963	     21.76412324	     76.88550101	     52.09855541	      0.00000000	      0.00000000	     45.20593428	    -25.74713660	     19.84780588	     92.84410873	     50.69760789	      0.00000000	      0.00000000
      5.01000000	    -22.41035012	     -4.02006402	      4.93172896	      0.37258564	      1.12960426	     -0.26082370	      0.00000000	      0.50000000	      0.00000000	      0.25000000	     59.78484334	     -4.27447344	     -0.83337333	    100.24009803	      1.74951975	    -11.53945732	    -12.17194291	      0.00000000	      0.00000000	     48.35950368	     -1.47169668	      8.97975631	     45.30909916	      0.79079296	    -12.18414426	    -13.50665450	      0.00000000	      0.00000000	    -63.90098192	      5.12510679	     -5.27544501	     52.64593966	    -17.04478345	     22.49534269	     76.83015550	     52.15304959	      0.00000000	      0.00000000	     44.46080823	    -25.77665278	     18.91642646	     92.88335881	     50.61972541	      0.00000000	      0.00000000
      5.01500000	    -22.41199677	     -4.57510362	      4.70907730	      0.37293732	      1.12914600	     -0.26106814	      0.00000000	      0.50000000	      0.00000000	      0.25000000	     61.09630568	     -3.90965003	     -1.07067418	    101.97888175	      1.77986725	    -10.35256763	    -12.05460998	      0.00000000	      0.00000000	     46.95846482	     -2.27575057	      8.95580265	     43.27208859	      0.75524042	    -13.60404655	    -13.30276836	      0.00000000	      0.00000000	    -63.84005839	      5.77053412	     -5.42941077	     53.72483394	    -16.25768030	     24.02191965	     75.76576469	     52.16429239	      0.00000000	      0.00000000	     42.92214452	    -26.31701713	     17.01817560	     93.92665006	     50.66221663	      0.00000000	      0.00000000
      5.02000000	    -22.42818381	     -5.02614175	      4.33762033	      0.37339190	      1.12880738	     -0.26095087	      0.00000000	      0.50000000	      0.00000000	      0.25000000	     62.45367898	     -3.43321588	     -1.14058488	    103.58803447	      1.80795227	     -9.30743484	    -11.91853063	      0.00000000	      0.00000000	     45.52122452	     -3.15737368	      8.64390436	     41.25915344	      0.72010807	    -14.96144490	    -13.10746375	      0.00000000	      0.00000000	    -63.78234508	      6.10046032	     -4.87209493	     53.85330139	    -16.07639964	     24.25572158	     75.87756500	     52.19641021	      0.00000000	      0.00000000	     42.42992926	    -26.43261323	     16.72731780	     93.84778936	     50.62583373	      0.00000000	      0.00000000
      5.02500000	    -22.54878372	     -5.56765493	      4.04306366	      0.37367269	      1.12832454	     -0.26087057	      0.00000000	      0.50000000	      0.00000000	      0.25000000	     63.90161387	     -3.03519284	     -1.44486836	    105.05329112	      1.83352582	     -8.42681669	    -12.09064434	      0.00000000	      0.00000000	     44.28013557	     -4.04933036	      8.48529343	     39.41210270	      0.68787096	    -16.01247567	    -12.53268324	      0.00000000	      0.00000000	    -63.63393604	      6.54235063	     -4.26192545	     54.01040024	    -15.92397692	     24.39737358	     75.97194873	     52.21619713	      0.00000000	      0.00000000	     42.03291948	    -26.54189551	     16.58223632	     93.77223398	     50.60174034	      0.00000000	      0.00000000
      5.03000000	    -22.67878012	     -6.00358259	      3.71313951	      0.37400471	      1.12798525	     -0.26091366	      0.00000000	      0.50000000	      0.00000000	      0.25000000	     65.38507610	     -2.70629341	     -1.61177160	    106.40855063	      1.85717956	     -7.66481358	    -12.16080389	      0.00000000	      0.00000000	     43.01925848	     -4.87323430	      8.15026994	     37.61732975	      0.65654626	    -16.99280925	    -12.00108128	      0.00000000	      0.00000000	    -63.50830211	      6.99810735	     -3.63762514	     54.16646083	    -15.76655989	     24.55552767	     76.08089988	     52.23937641	      0.00000000	      0.00000000	     41.66119103	    -26.67945989	     16.39510200	     93.69016734	     50.57175361	      0.00000000	      0.00000000
      5.03500000	    -22.78874448	     -6.33228276	      3.34627266	      0.37440020	      1.12773990	     -0.26069346	      0.00000000	      0.50000000	      0.00000000	      0.25000000	     66.84019658	     -2.41510989	     -1.75047970	    107.66104338	      1.87903968	     -6.89354127	    -12.18499468	      0.00000000	      0.00000000	     41.74043181	     -5.66356959	      7.62701463	     35.89729670	      0.62652602	    -18.12598824	    -11.43926276	      0.00000000	      0.00000000	    -63.40638594	      7.29557125	     -3.16937431	     54.29631277	    -15.60606669	     24.76961014	     76.22126828	     52.27538230	      0.00000000	      0.00000000	     41.20309670	    -26.81645861	     16.14165830	     93.56845045	     50.53150177	      0.00000000	      0.00000000
      5.04000000	    -22.88451606	     -6.59202962	      2.94505613	      0.37500999	      1.12764475	     -0.26051838	      0.00000000	      0.50000000	      0.00000000	      0.25000000	     68.25406617	     -2.17556231	     -1.84871119	    108.78967914	      1.89873809	     -6.09019453	    -12.20090174	      0.00000000	      0.00000000	     40.41291697	     -6.39132781	      7.03627144	     34.25017454	      0.59777832	    -19.16458715	    -10.92932090	      0.00000000	      0.00000000	    -63.35263355	      7.47987829	     -2.77076569	     54.39381103	    -15.47655190	     25.00011823	     76.36283098	     52.31512626	      0.00000000	      0.00000000	     40.75314329	    -26.96780823	     15.82115929	     93.48100896	     50.49148987	      0.00000000	      0.00000000
      5.04500000	    -22.69958212	     -6.44730259	      2.37199872	      0.37588561	      1.12807562	     -0.26025812	      0.00000000	      0.50000000	      0.00000000	      0.25000000	     69.39782820	     -2.01213253	     -1.47827253	    109.86718874	      1.91754418	     -5.39042360	    -11.72391533	      0.00000000	      0.00000000	     38.61876836	     -6.89470107	      5.88201713	     32.51908682	      0.56756513	    -20.36217888	    -10.65992117	      0.00000000	      0.00000000	    -63.67197342	      7.36411925	     -2.89972542	     54.64980959	    -15.22108169	     25.71242523	     76.57340534	     52.41803220	      0.00000000	      0.00000000	     39.97911292	    -27.16303328	     14.57058504	     93.70364849	     50.42733782	      0.00000000	      0.00000000
      5.05000000	    -22.80459361	     -6.66231165	      2.05099058	      0.37632194	      1.12791178	     -0.26023154	      0.00000000	      0.50000000	      0.00000000	      0.25000000	     70.79536233	     -1.95996992	     -1.63770287	    110.76053476	      1.93313601	     -4.69518364	    -11.68742738	      0.00000000	      0.00000000	     37.44530586	     -7.50394586	      5.20041606	     31.18364366	      0.54425725	    -21.19942795	     -9.96464913	      0.00000000	      0.00000000	    -63.65246903	      7.74716079	     -3.18814931	     55.45811721	    -14.42039321	     26.78196564	     75.81942060	     52.41066287	      0.00000000	      0.00000000	     38.38764819	    -27.74775800	     12.77173896	     94.85890815	     50.52311381	      0.00000000	      0.00000000
      5.05500000	    -22.98823356	     -6.89178908	      1.73914426	      0.37667451	      1.12770584	     -0.26026189	      0.00000000	      0.50000000	      0.00000000	      0.25000000	     72.26699573	     -1.96367913	     -1.87276005	    111.52525428	      1.94648289	     -4.22414947	    -11.75912683	      0.00000000	      0.00000000	     36.44533589	     -8.08210793	      4.60611375	     30.04197282	      0.52433134	    -21.90453482	     -9.31160657	      0.00000000	      0.00000000	    -63.55094592	      8.05068008	     -2.75444132	     55.61464497	    -14.34476734	     26.82288646	     75.94030351	     52.43265586	      0.00000000	      0.00000000	     38.11322406	    -27.86691773	     12.70103489	     94.75129152	     50.50589255	      0.00000000	      0.00000000
      5.06000000	    -23.03522104	     -6.84772850	      1.24880599	      0.37721589	      1.12773735	     -0.25993365	      0.00000000	      0.50000000	      0.00000000	      0.25000000	     73.59733151	     -1.89351304	     -1.77777118	    112.19156561	      1.95811221	     -3.86028228	    -11.62921114	      0.00000000	      0.00000000	     35.25383647	     -8.55274319	      3.52153588	     29.00230195	      0.50618566	    -22.59736594	     -8.65988351	      0.00000000	      0.00000000	    -63.58326016	      8.00738969	     -2.51737968	     55.62582107	    -14.27017910	     26.95911374	     76.24628589	     52.49670434	      0.00000000	      0.00000000	     37.76536215	    -27.98549228	     12.37920169	     94.62423854	     50.46765066	      0.00000000	      0.00000000
      5.06500000	    -23.05846079	     -7.01442785	      1.13970072	      0.37722364	      1.12747243	     -0.26024308	      0.00000000	      0.50000000	      0.00000000	      0.25000000	     74.87925145	     -2.18265497	     -2.04784568	    112.77763386	      1.96834103	     -3.70927304	    -11.64484546	      0.00000000	      0.00000000	     34.43382857	     -8.90628669	      3.06403375	     28.56461238	      0.49854654	    -22.79041801	     -8.46160900	      0.00000000	      0.00000000	    -63.60900133	      8.39460620	     -2.17057870	     55.75090610	    -14.20803883	     26.97322535	     76.31058214	     52.50655594	      0.00000000	      0.00000000	     37.71807681	    -28.06678287	     12.31527451	     94.61688388	     50.46197391	      0.00000000	      0.00000000
      5.07000000	    -23.16259643	     -6.80073804	      0.50127718	      0.37798547	      1.12790696	     -0.25962135	      0.00000000	      0.50000000	      0.00000000	      0.25000000	     76.13877328	     -1.93398948	     -1.72501047	    113.07900410	      1.97360094	     -3.40912374	    -11.54441006	      0.00000000	      0.00000000	     33.28571034	     -9.25984262	      1.83796255	     27.59192281	      0.48156990	    -23.69281982	     -7.62346246	      0.00000000	      0.00000000	    -63.71975423	      8.10209918	     -1.97544170	     55.80741257	    -14.22050393	     27.17681821	     76.85057370	     52.61318738	      0.00000000	      0.00000000	     37.31840230	    -28.13124399	     11.87926219	     94.39772808	     50.40038978	      0.00000000	      0.00000000
